<?xml version="1.0" encoding="UTF-8" standalone="no"?>
<svg width="352px" height="76px" viewBox="0 0 352 76" version="1.1" xmlns="http://www.w3.org/2000/svg" xmlns:xlink="http://www.w3.org/1999/xlink">
    <!-- Generator: Sketch 41.1 (35376) - http://www.bohemiancoding.com/sketch -->
    <title>Group 11</title>
    <desc>Created with Sketch.</desc>
    <defs>
        <polygon id="path-1" points="44.9696604 40.1062793 44.9696604 0.291603261 22.6245272 0.291603261 0.279394011 0.291603261 0.279394011 40.1062793"></polygon>
    </defs>
    <g id="Symbols" stroke="none" stroke-width="1" fill="none" fill-rule="evenodd">
        <g id="Group-11">
            <g id="logo_ce-en-quadri">
                <path d="M0,27.0668924 C0,27.0668924 43.6082395,21.4253413 44.8402393,21.2237185 C46.7271209,20.9160076 48.403485,20.5560859 49.9670916,20.1234022 C53.4942327,19.1575011 56.7408689,17.6828217 59.61535,15.7404663 C62.3709637,13.8919793 64.9343899,11.203675 67.4755979,8.2543163 C69.0914173,6.37750217 70.7883332,3.93081196 72.3713808,1.56910326 L72.3713808,0.429351087 C70.4933865,3.20930217 68.6431649,5.60378152 66.7407305,7.71887717 C64.2195189,10.5249337 61.5744409,12.8211011 58.8782609,14.5429489 C56.0959853,16.3347815 52.9643284,17.6722685 49.5693856,18.5193065 C48.0479936,18.9025565 46.4188432,19.2130446 44.5880626,19.4679891 C43.3805028,19.6379522 42.1362829,19.7679239 40.9337222,19.8951185 C40.4532534,19.945663 0,24.2358413 0,24.2358413 L0,27.0668924" id="Fill-1" fill="#B4B5B4"></path>
                <path d="M58.4805549,19.7557043 C55.7510476,21.3259185 52.5982833,22.4740022 49.1105796,23.169962 C47.6208485,23.4704522 45.9978081,23.7148435 44.1464756,23.9170217 C43.0594496,24.0347739 41.9635363,24.1297533 40.8665121,24.2241772 C40.2743968,24.2758326 39.6828369,24.3269326 39.0929434,24.3813652 C25.7292445,25.579438 12.4338667,26.8536054 0,28.0611207 L0,30.8893946 C12.5321823,29.3780565 25.9197657,27.7778489 39.2784655,26.2659554 C39.8728026,26.1965261 40.4671398,26.1304293 41.0620324,26.0654435 C42.1562793,25.9449141 43.2521926,25.8243848 44.3514386,25.6794163 C46.2522066,25.4266935 47.9157952,25.1356457 49.4355209,24.7912761 C53.0587558,23.9808967 56.3326093,22.7022859 59.1604322,20.9898804 C61.9715914,19.303025 64.4561429,16.9407609 67.1267719,14.0519446 C68.7898051,12.2545576 70.6400267,9.71733152 72.3713808,7.33285 L72.3713808,6.29585326 C70.3323044,9.06191848 68.3965427,11.386413 66.4813329,13.3682043 C63.8734703,16.0698391 61.181734,18.2177054 58.4805549,19.7557043" id="Fill-2" fill="#B4B5B4"></path>
                <path d="M66.1125106,19.0630772 C63.4513243,21.5031022 60.6734924,23.4221293 57.8545568,24.7679478 C55.0983876,26.0976587 52.0139444,27.0302337 48.4240368,27.6206609 C46.9426376,27.8656076 45.3318172,28.066675 43.5021475,28.2333054 L0,31.8047511 L0,34.6274707 L38.6696865,30.5250293 L43.6732277,29.9984772 C45.5573321,29.7813022 47.2014797,29.5369109 48.6973208,29.2519728 C52.4155386,28.5504587 55.6049628,27.5017978 58.4466721,26.0476696 C61.3517033,24.5785446 64.2545126,22.1346315 66.9529144,19.5468609 C68.7642541,17.8111272 70.5078283,15.5705033 72.3713808,13.2199033 L72.3713808,12.2789967 C70.2189916,14.9539707 68.163807,17.1840413 66.1125106,19.0630772" id="Fill-3" fill="#B4B5B4"></path>
                <path d="M55.5927428,33.7198902 C53.0604221,35.1368043 51.1668751,35.9532935 47.5503057,36.3304337 C45.3640336,36.5653826 43.1177724,36.6775804 40.9442759,36.7858902 C39.8922436,36.8381011 38.8391003,36.8908674 37.7887344,36.9569641 C31.2165874,37.332438 24.7627523,37.7484587 18.1783853,38.1778098 L0,39.4025435 L0,42.2241522 L18.3594637,40.5395185 C24.2922817,40.007412 31.1865928,39.394212 37.9164891,38.844887 L42.8089393,38.4660804 C44.7185946,38.3194457 46.2849785,38.1639239 47.7358277,37.9745207 C51.4573782,37.4940696 54.6368043,36.7425663 57.453518,35.6777978 C60.4863039,34.5436 63.3463432,32.7828717 66.2108262,30.7127663 C68.7936933,28.8465054 72.3674926,25.1661946 72.3713808,25.1178717 L72.3713808,24.1208663 C70.0345804,26.4003707 68.6892677,27.6800924 66.1319515,29.3652815 C63.0752811,31.379288 57.8634441,32.4496109 55.5927428,33.7198902" id="Fill-4" fill="#B4B5B4"></path>
                <path d="M56.5175759,39.0837239 C53.7736267,39.8879935 50.6841844,40.4323196 47.0742805,40.748362 C45.6117667,40.8750011 44.0342737,40.9722022 42.2512622,41.0438533 L37.3854738,41.2571402 C25.2948785,41.8192402 13.2631614,42.4468815 0,43.1489511 L0,45.9638946 C12.6688243,44.9835522 25.0849164,44.0293152 37.4948985,43.1461739 L42.3468005,42.8151348 C44.2192403,42.6923837 45.7717378,42.5585239 47.2325852,42.3941152 C50.9335838,41.9803163 54.0991235,41.3415663 56.9086164,40.4423174 C60.0224988,39.4564207 63.056951,38.0261761 65.9286549,36.1932413 C68.0499386,34.8429793 70.1706669,33.2333293 72.3713808,31.3126359 L72.3713808,31.2632022 C69.946263,33.3333076 67.6350135,33.7920967 65.3315404,35.1829054 C62.5114939,36.8914228 59.5459181,38.2039152 56.5175759,39.0837239" id="Fill-5" fill="#B4B5B4"></path>
                <path d="M56.0693235,43.7599293 C53.3048225,44.4059 50.3098075,44.8219207 46.6410253,45.0674228 C45.2257253,45.1624022 43.7054441,45.2334978 41.8530007,45.2907076 L37.0338706,45.462337 C24.891618,45.9211261 12.579396,46.4493446 0,46.9947815 L0,49.8086141 C12.498855,48.9565772 24.7605305,48.1267576 37.1288535,47.3524815 L41.9368745,47.0642109 C43.8220897,46.957012 45.3584791,46.8470359 46.769891,46.7187304 C50.5064387,46.3738054 53.5636646,45.8716924 56.3903766,45.1396293 C59.5620263,44.3225848 62.6448032,43.1250674 65.554278,41.5804033 C67.8033165,40.3878848 70.0468004,38.9543076 72.3713808,37.2285717 L72.3713808,36.0255 C69.8590565,37.8401054 67.448936,39.3192283 65.0360382,40.5250772 C62.1798871,41.9553217 59.1637649,43.042863 56.0693235,43.7599293" id="Fill-6" fill="#B4B5B4"></path>
                <path d="M55.6577311,48.3450435 C52.8843428,48.8532663 49.8971043,49.1770848 46.2560948,49.3653772 C44.8863421,49.435362 43.4204956,49.4859065 41.5030639,49.5292304 L0,50.6539859 L0,53.4644859 L36.8039121,51.5437924 L41.5713849,51.3021783 C43.4321601,51.2144196 44.9541076,51.1244391 46.3616313,51.0155739 C50.0526317,50.733413 53.0893058,50.3279457 55.9165733,49.7364076 C59.1265494,49.0704413 62.2415427,48.0973196 65.1754575,46.8470359 C67.5383643,45.845587 69.9062702,44.623075 72.3713808,43.1367315 L72.3713808,42.0069772 C69.7368564,43.5388663 67.2328639,44.7691543 64.7460906,45.7522739 C61.8521685,46.9025793 58.7949426,47.7740565 55.6577311,48.3450435" id="Fill-7" fill="#B4B5B4"></path>
                <path d="M55.3316788,52.9495978 C50.2392647,53.6283391 44.9963222,53.7066554 39.9261263,53.7821946 C38.7641139,53.7988576 37.6015459,53.8166315 36.4411998,53.8405152 L0,54.4975946 L0,57.304762 L36.5039663,55.7317707 C37.6615351,55.6795598 38.8207703,55.6334587 39.980561,55.5868022 C45.086306,55.3824022 50.366464,55.1718924 55.5277546,54.3520707 C58.795498,53.8371826 61.9399304,53.0751261 64.8732898,52.0886739 C67.3034067,51.2755174 69.8212856,50.222413 72.3713808,48.9776837 L72.3713808,47.9001402 C69.691309,49.1487576 67.0556737,50.1857543 64.5255748,50.9628076 C61.6255427,51.8581685 58.5327677,52.526912 55.3316788,52.9495978" id="Fill-8" fill="#B4B5B4"></path>
                <path d="M55.0422866,57.5824793 C50.2703702,57.9762826 45.3873628,57.976838 40.6643264,57.976838 C39.1951472,57.976838 37.7259679,57.9773935 36.2562332,57.989613 C24.1845234,58.0423793 12.2077964,58.1406913 0,58.2473348 L0,61.0550576 C11.6273456,60.6606989 23.9623413,60.2480109 36.2973369,59.8819793 C37.7615171,59.8331011 39.2262527,59.7964424 40.6926546,59.7581174 C45.4412419,59.6392543 50.3514667,59.5142815 55.1722632,58.9932837 C58.5405441,58.6316957 61.6044354,58.1023663 64.5400167,57.3758576 C67.1006655,56.7471054 69.7301909,55.9078435 72.3713808,54.8986185 L72.3713808,53.8671761 C69.6452062,54.8458522 66.9284744,55.6445674 64.2828409,56.2261076 C61.3755879,56.8676348 58.3522447,57.3114272 55.0422866,57.5824793" id="Fill-9" fill="#B4B5B4"></path>
                <path d="M54.8578755,62.150375 C52.869901,62.2292467 50.7175117,62.2664609 48.2757303,62.2664609 C47.353119,62.2664609 46.4299523,62.2609065 45.5101184,62.2531304 L36.1173694,62.1387109 C29.7085263,62.0909435 23.3241231,62.0803902 17.3346487,62.0748359 L0,62.0914989 L0,64.8981109 L17.3757524,64.4432098 C23.3435641,64.296575 29.7468527,64.1454967 36.135144,64.0294109 L45.5195611,63.9061043 C48.0940964,63.8655576 51.491261,63.7900185 54.9323065,63.5639565 C58.3044756,63.3451152 61.373366,63.0096326 64.3145018,62.5397348 C66.9612463,62.1164935 69.6657581,61.5466174 72.3713808,60.8573228 L72.3713808,59.8608728 C69.5918825,60.5012891 66.8290479,61.0134 64.1484207,61.3722109 C61.2239486,61.7643478 58.1850527,62.0181815 54.8578755,62.150375" id="Fill-10" fill="#B4B5B4"></path>
                <path d="M45.4006937,66.5638598 L36.0401611,66.4638815 C24.0995387,66.2955848 12.16947,66.0772989 0,65.8501261 L0,68.6589598 C11.6162365,68.5817543 23.9190158,68.4934402 36.0490484,68.3568033 L45.4140246,68.2179446 C48.5695661,68.1640674 51.6601194,68.1068576 54.7851108,68.0024359 C61.2200604,67.7958141 66.9845754,67.3436902 72.3713808,66.6310674 L72.3713808,65.654613 C66.9640235,66.2361533 61.1911767,66.5427533 54.752339,66.5849663 C51.6367902,66.6121826 48.5190197,66.5899652 45.4006937,66.5638598" id="Fill-11" fill="#B4B5B4"></path>
                <polyline id="Fill-12" fill="#B4B5B4" points="72.3713808 71.5294467 0 69.6942902 0 72.5009022 72.3713808 72.5009022 72.3713808 71.5294467"></polyline>
                <path d="M65.8547793,24.3669239 C63.1058311,26.5747772 60.9823255,28.143325 57.6173774,29.480812 C54.6873507,30.6450033 51.540141,31.1221217 47.9441235,31.6120152 C45.6300967,31.9363891 43.2116444,32.4157293 40.9015058,32.5695848 C39.9516773,32.6329043 39.0012933,32.6962239 38.0536865,32.7706522 L0,35.5433826 L0,38.3611033 L38.2075477,34.6569087 L43.1610979,34.1925652 C44.9985441,34.0187141 46.6293608,33.8159804 48.1474201,33.5715891 C51.8500851,32.9772739 55.0406203,32.069138 57.9001041,30.796637 C60.8673463,29.4880326 63.8695821,27.3451652 66.659634,24.9978978 C68.5581802,23.4038 70.3839618,21.3975696 72.3713808,19.2074902 L72.3713808,18.1977098 C69.9673703,20.6821696 67.9749522,22.6672935 65.8547793,24.3669239" id="Fill-13" fill="#B4B5B4"></path>
                <polygon id="Fill-15" fill="#174489" points="30.0812368 72.5009022 93.4864582 72.5009022 93.4864582 30.0873467 30.0812368 30.0873467"></polygon>
                <polyline id="Fill-16" fill="#FFF101" points="62.4709457 36.1177022 64.6772141 36.1177022 62.8992017 37.5029565 63.5901881 39.7002565 61.8188412 38.346662 60.0474943 39.7002565 60.7457016 37.5029565 58.9538028 36.1177022 61.1522948 36.1177022 61.8188412 33.9748348 62.4709457 36.1177022"></polyline>
                <polyline id="Fill-17" fill="#FFF101" points="62.5487094 64.402663 64.7577551 64.402663 62.9797427 65.7384837 63.6707291 67.8502467 61.8993822 66.548863 60.1280353 67.8502467 60.8262426 65.7384837 59.0304556 64.402663 61.2333913 64.402663 61.8993822 62.3408891 62.5487094 64.402663"></polyline>
                <polyline id="Fill-18" fill="#FFF101" points="69.5457797 62.529737 71.7553809 62.529737 69.976813 63.8616696 70.6683549 65.9773207 68.897008 64.6720489 67.125661 65.9773207 67.8233129 63.8616696 66.0280814 62.529737 68.2304616 62.529737 68.897008 60.4674076 69.5457797 62.529737"></polyline>
                <polyline id="Fill-19" fill="#FFF101" points="69.5457797 38.0045141 71.7553809 38.0045141 69.976813 39.3370022 70.6683549 41.4520978 68.897008 40.1490478 67.125661 41.4520978 67.8233129 39.3370022 66.0280814 38.0045141 68.2304616 38.0045141 68.897008 35.9421848 69.5457797 38.0045141"></polyline>
                <polyline id="Fill-20" fill="#FFF101" points="74.7403976 43.1983848 76.9461106 43.1983848 75.1680982 44.529762 75.8590846 46.6459685 74.0877377 45.3434739 72.3202789 46.6459685 73.0179308 44.529762 71.2221438 43.1983848 73.4211913 43.1983848 74.0877377 41.1366109 74.7403976 43.1983848"></polyline>
                <polyline id="Fill-21" fill="#FFF101" points="74.7403976 57.4058511 76.9461106 57.4058511 75.1680982 58.7422272 75.8590846 60.8567674 74.0877377 59.5514957 72.3202789 60.8567674 73.0179308 58.7422272 71.2221438 57.4058511 73.4211913 57.4058511 74.0877377 55.3435217 74.7403976 57.4058511"></polyline>
                <polyline id="Fill-22" fill="#FFF101" points="76.686713 50.1940859 78.8968696 50.1940859 77.1177463 51.5271293 77.8087326 53.6427804 76.0373857 52.3375087 74.2665943 53.6427804 74.9642461 51.5271293 73.1690146 50.1940859 75.3680621 50.1940859 76.0373857 48.1334228 76.686713 50.1940859"></polyline>
                <polyline id="Fill-23" fill="#FFF101" points="55.3377888 38.0217326 57.5435018 38.0217326 55.7654894 39.3564424 56.4564758 41.471538 54.6851289 40.1662663 52.913782 41.471538 53.6119893 39.3564424 51.819535 38.0217326 54.019138 38.0217326 54.6851289 35.9599587 55.3377888 38.0217326"></polyline>
                <polyline id="Fill-24" fill="#FFF101" points="50.2870339 43.2161587 52.496635 43.2161587 50.7180672 44.5486467 51.4057208 46.6637424 49.6377066 45.3606924 47.8669152 46.6637424 48.5629007 44.5486467 46.7687801 43.2161587 48.9717158 43.2161587 49.6377066 41.1538293 50.2870339 43.2161587"></polyline>
                <polyline id="Fill-25" fill="#FFF101" points="48.4123723 50.2113043 50.6203071 50.2113043 48.8417392 51.5449033 49.5327256 53.6599989 47.7613787 52.3586152 45.9900317 53.6599989 46.688239 51.5449033 44.8957848 50.2113043 47.0953878 50.2113043 47.7613787 48.1506413 48.4123723 50.2113043"></polyline>
                <polyline id="Fill-26" fill="#FFF101" points="50.2870339 57.4230696 52.496635 57.4230696 50.7180672 58.7594457 51.4057208 60.8739859 49.6377066 59.5703804 47.8669152 60.8739859 48.5629007 58.7594457 46.7687801 57.4230696 48.9717158 57.4230696 49.6377066 55.3640728 50.2870339 57.4230696"></polyline>
                <polyline id="Fill-27" fill="#FFF101" points="55.4111089 62.5469554 57.6168219 62.5469554 55.8388095 63.8799989 56.5264632 65.9945391 54.758449 64.6898228 52.9876575 65.9945391 53.6853094 63.8799989 51.8934106 62.5469554 54.0924581 62.5469554 54.758449 60.4846261 55.4111089 62.5469554"></polyline>
                <g id="Group-32" transform="translate(102.203774, 0.000000)">
                    <mask id="mask-2" fill="white">
                        <use xlink:href="#path-1"></use>
                    </mask>
                    <g id="Clip-30"></g>
                    <path d="M0.30550041,0.291603261 C0.30550041,0.291603261 13.5264473,20.878238 15.9437887,24.6629707 C18.3600192,28.446037 21.1234093,31.4398304 30.9049769,33.4732772 C40.6871001,35.5061685 44.9452203,36.4665152 44.9452203,36.4665152 L44.9452203,37.2008 C44.9452203,37.2008 38.7296756,35.901638 30.7322304,34.1509076 C22.7342296,32.4001772 19.4648198,31.8108609 15.8188112,26.8386087 C12.7849144,22.7000641 0.30550041,5.11388804 0.30550041,5.11388804 L0.30550041,0.291603261" id="Fill-29" fill="#B4B5B4" mask="url(#mask-2)"></path>
                    <path d="M0.30550041,6.14533043 C0.30550041,6.14533043 13.9669233,25.7166304 15.7799294,28.1155533 C17.5929354,30.5139207 20.0358278,34.381413 30.8333232,36.6636946 C33.6217088,37.2524554 44.9813249,39.487525 44.9813249,39.487525 L44.9813249,40.1062793 C44.9813249,40.1062793 36.3501052,38.4427522 30.8333232,37.2824489 C25.3165413,36.1215902 19.5181435,35.0629315 15.8188112,30.3972793 C12.4588622,26.159312 0.279394011,10.5293772 0.279394011,10.5293772 L0.30550041,6.14533043" id="Fill-31" fill="#B4B5B4" mask="url(#mask-2)"></path>
                </g>
                <path d="M102.509274,12.0246076 C102.509274,12.0246076 115.382506,28.6565467 117.983703,31.9830457 C120.584345,35.3095446 124.170364,38.0561696 133.037097,39.7580217 C138.149507,40.739475 147.145106,42.3880054 147.145106,42.3880054 L147.145106,43.0067598 C147.145106,43.0067598 139.263751,41.5370793 133.037097,40.4151011 C126.810443,39.2936783 121.668593,38.2089141 117.983703,34.0714804 C114.750398,30.4422696 102.483168,16.1764826 102.483168,16.1764826 L102.509274,12.0246076" id="Fill-33" fill="#B4B5B4"></path>
                <path d="M102.483723,17.8005739 C102.483723,17.8005739 115.516371,32.8889598 118.022585,35.5800413 C121.925214,39.7707967 123.816539,41.2154826 133.037097,42.9678793 C136.726431,43.6699489 147.145106,45.4823326 147.145106,45.4823326 L147.145106,46.1399674 C147.145106,46.1399674 138.515552,44.5925261 133.037097,43.6260696 C127.559752,42.6590576 122.923367,42.298025 117.983703,37.5529457 C114.219382,33.9376207 102.509274,21.6947272 102.509274,21.6947272 L102.483723,17.8005739" id="Fill-34" fill="#B4B5B4"></path>
                <path d="M102.509274,23.8092674 C102.509274,23.8092674 114.543768,36.1704685 118.022585,39.7191413 C121.714141,43.4838783 126.443287,44.8763533 132.997659,46.0238815 C139.254863,47.1191989 147.145106,48.3833685 147.145106,48.3833685 L147.145106,49.0798837 C147.145106,49.0798837 139.735888,47.889587 132.997659,46.7592772 C126.390519,45.6500739 121.766909,45.0313196 117.983703,41.6142848 C114.595426,38.5543946 102.509274,27.4451435 102.509274,27.4451435 L102.509274,23.8092674" id="Fill-35" fill="#B4B5B4"></path>
                <path d="M102.509274,29.3791674 C102.509274,29.3791674 113.95443,39.7963467 118.022585,43.3550174 C121.766909,46.6304163 124.801361,47.6485283 133.037097,49.0798837 C141.273943,50.5112391 147.145106,51.4004902 147.145106,51.4004902 L147.145106,52.1353304 C147.145106,52.1353304 139.697006,50.9367022 132.997659,49.8919293 C126.298313,48.847712 122.029639,48.4350239 118.022585,45.2501609 C113.397864,41.573738 102.509274,32.7828717 102.509274,32.7828717 L102.509274,29.3791674" id="Fill-36" fill="#B4B5B4"></path>
                <path d="M102.483168,35.33565 C102.483168,35.33565 115.540255,45.4823326 117.983703,47.2619457 C120.426595,49.0410033 123.658234,51.116663 133.037097,52.4447076 C142.33764,53.7621989 147.105668,54.4170565 147.105668,54.4170565 L147.105668,55.1913326 C147.105668,55.1913326 138.673302,53.9915935 133.037097,53.2961891 C127.402003,52.5991185 123.080561,52.3041826 118.022585,49.0021228 C113.099585,45.7889326 102.509274,38.4810772 102.509274,38.4810772 L102.483168,35.33565" id="Fill-37" fill="#B4B5B4"></path>
                <path d="M102.483168,41.0344109 C102.483168,41.0344109 115.579137,49.5825522 118.062022,50.9367022 C120.545463,52.2897413 123.461603,54.4948174 133.037097,55.6940011 C142.613146,56.8931848 147.105668,57.4341783 147.105668,57.4341783 L147.105668,58.1690185 C147.105668,58.1690185 139.185431,57.3186478 132.997659,56.661013 C126.810443,56.0033783 122.594537,55.1135717 117.983703,52.6385543 C113.372313,50.1629815 102.509274,43.9482217 102.509274,43.9482217 L102.483168,41.0344109" id="Fill-38" fill="#B4B5B4"></path>
                <path d="M102.509274,46.7331717 C102.509274,46.7331717 114.09996,52.9123837 118.022585,54.8425196 C122.397906,56.9959402 126.181112,58.0268272 133.037097,58.8266533 C139.76977,59.6125935 147.145106,60.3740946 147.145106,60.3740946 L147.145106,61.0711652 C147.145106,61.0711652 140.325781,60.3546543 133.037097,59.6781348 C125.81229,59.0071696 123.238865,58.6983478 118.022585,56.4293967 C113.358427,54.4003935 102.483723,49.4409163 102.483723,49.4409163 L102.509274,46.7331717" id="Fill-39" fill="#B4B5B4"></path>
                <path d="M102.509274,52.5352435 C102.509274,52.5352435 111.625962,56.3621891 118.062022,58.8655337 C124.394212,61.3277761 129.22834,61.5349533 133.07709,61.9598609 C134.771228,62.1470424 147.105668,63.3912163 147.105668,63.3912163 L147.105668,64.0860652 C147.105668,64.0860652 139.736999,63.5073022 133.037097,62.9274283 C126.337751,62.3475543 123.448272,62.1014967 118.022585,60.3357696 C112.53302,58.5494913 102.483168,55.1135717 102.483168,55.1135717 L102.509274,52.5352435" id="Fill-40" fill="#B4B5B4"></path>
                <path d="M102.509274,58.4145207 C102.509274,58.4145207 111.757049,61.2250207 118.062022,62.8496674 C124.367551,64.4743141 130.160949,65.1319489 133.07709,65.3246848 C135.99323,65.519087 147.105668,66.4072272 147.105668,66.4072272 L147.105668,67.0659728 C147.105668,67.0659728 140.804028,66.6416207 133.037097,66.0989609 C126.758786,65.6601674 121.714141,65.1963793 118.022585,64.3965533 C113.931657,63.5111902 102.483723,60.8378826 102.483723,60.8378826 L102.509274,58.4145207" id="Fill-41" fill="#B4B5B4"></path>
                <path d="M102.483723,64.2165924 C102.483723,64.2165924 110.072353,65.4963141 118.062022,66.7943652 C124.052052,67.767487 132.170587,68.3812424 133.037097,68.4195674 C133.904718,68.4584478 147.145106,69.3482543 147.145106,69.3482543 L147.145106,70.0436587 C147.145106,70.0436587 138.67108,69.6143076 133.037097,69.3093739 C127.169267,68.9916652 121.336431,68.6428522 118.022585,68.3034815 C110.602258,67.5442022 102.483723,66.5371989 102.483723,66.5371989 L102.483723,64.2165924" id="Fill-42" fill="#B4B5B4"></path>
                <path d="M102.509274,70.2236196 C102.509274,70.2236196 114.437121,70.6629685 118.062022,70.7407293 C121.688034,70.8179348 147.145106,71.8232717 147.145106,71.8232717 L147.145106,72.519787 L102.509274,72.4936815 L102.509274,70.2236196" id="Fill-43" fill="#B4B5B4"></path>
            </g>
            <path d="M167.785,35.95 C167.935001,35.95 168.119999,35.955 168.34,35.965 C168.560001,35.9750001 168.794999,35.9949999 169.045,36.025 C169.295001,36.0550002 169.544999,36.0949997 169.795,36.145 C170.045001,36.1950003 170.269999,36.2599996 170.47,36.34 C170.580001,36.3900002 170.645,36.4399997 170.665,36.49 C170.685,36.5400003 170.685,36.5999996 170.665,36.67 L170.575,37.09 C170.555,37.1400002 170.5275,37.1849998 170.4925,37.225 C170.4575,37.2650002 170.39,37.2750001 170.29,37.255 C169.959998,37.2049998 169.572502,37.1575002 169.1275,37.1125 C168.682498,37.0674998 168.235002,37.045 167.785,37.045 C167.204997,37.045 166.745002,37.1549989 166.405,37.375 C166.064998,37.5950011 165.805001,37.8924981 165.625,38.2675 C165.444999,38.6425019 165.33,39.0774975 165.28,39.5725 C165.23,40.0675025 165.205,40.5899972 165.205,41.14 C165.205,41.6400025 165.235,42.1249977 165.295,42.595 C165.355,43.0650023 165.477499,43.4799982 165.6625,43.84 C165.847501,44.2000018 166.109998,44.4874989 166.45,44.7025 C166.790002,44.9175011 167.234997,45.025 167.785,45.025 C168.245002,45.025 168.684998,45.0025002 169.105,44.9575 C169.525002,44.9124998 169.914998,44.8650003 170.275,44.815 C170.385001,44.7949999 170.4575,44.8074998 170.4925,44.8525 C170.5275,44.8975002 170.555,44.9449998 170.575,44.995 L170.65,45.385 C170.67,45.4650004 170.6725,45.5299998 170.6575,45.58 C170.6425,45.6300002 170.585001,45.6749998 170.485,45.715 C170.304999,45.7950004 170.090001,45.8599998 169.84,45.91 C169.589999,45.9600002 169.337501,45.9999998 169.0825,46.03 C168.827499,46.0600001 168.585001,46.0824999 168.355,46.0975 C168.124999,46.1125001 167.935001,46.12 167.785,46.12 C166.994996,46.12 166.352502,45.9825014 165.8575,45.7075 C165.362498,45.4324986 164.975001,45.0650023 164.695,44.605 C164.414999,44.1449977 164.225,43.615003 164.125,43.015 C164.025,42.414997 163.975,41.7900032 163.975,41.14 C163.975,40.4799967 164.0225,39.8375031 164.1175,39.2125 C164.2125,38.5874969 164.394999,38.0350024 164.665,37.555 C164.935001,37.0749976 165.319997,36.6875015 165.82,36.3925 C166.320002,36.0974985 166.974996,35.95 167.785,35.95 Z M177.97,45.76 C177.97,45.8600005 177.95,45.9249998 177.91,45.955 C177.87,45.9850001 177.805,46 177.715,46 L172.45,46 C172.269999,46 172.18,45.9200008 172.18,45.76 L172.18,36.31 C172.18,36.1399991 172.269999,36.055 172.45,36.055 L177.625,36.055 C177.795001,36.055 177.88,36.1349992 177.88,36.295 L177.88,36.88 C177.88,37.0500009 177.790001,37.135 177.61,37.135 L173.35,37.135 L173.35,40.3 L177.175,40.3 C177.345001,40.3 177.43,40.3799992 177.43,40.54 L177.43,41.125 C177.43,41.2850008 177.345001,41.365 177.175,41.365 L173.35,41.365 L173.35,44.935 L177.73,44.935 C177.890001,44.935 177.97,45.0199992 177.97,45.19 L177.97,45.76 Z M179.8,36.295 C179.8,36.1349992 179.894999,36.055 180.085,36.055 L185.155,36.055 C185.325001,36.055 185.41,36.1349992 185.41,36.295 L185.41,36.88 C185.41,37.0500009 185.320001,37.135 185.14,37.135 L180.955,37.135 L180.955,40.3 L184.66,40.3 C184.830001,40.3 184.915,40.3799992 184.915,40.54 L184.915,41.125 C184.915,41.2950008 184.825001,41.38 184.645,41.38 L180.97,41.38 L180.97,45.745 C180.97,45.9150009 180.885001,46 180.715,46 L180.07,46 C179.889999,46 179.8,45.9150009 179.8,45.745 L179.8,36.295 Z M198.16,41.005 C198.16,41.6950035 198.102501,42.342497 197.9875,42.9475 C197.872499,43.552503 197.665001,44.0824977 197.365,44.5375 C197.064999,44.9925023 196.655003,45.3499987 196.135,45.61 C195.614997,45.8700013 194.950004,46 194.14,46 L191.335,46 C191.214999,46 191.1325,45.9800002 191.0875,45.94 C191.0425,45.8999998 191.02,45.8350005 191.02,45.745 L191.02,36.31 C191.02,36.1499992 191.109999,36.07 191.29,36.07 L194.14,36.07 C194.940004,36.07 195.599997,36.1974987 196.12,36.4525 C196.640003,36.7075013 197.049999,37.0574978 197.35,37.5025 C197.650002,37.9475022 197.859999,38.469997 197.98,39.07 C198.100001,39.670003 198.16,40.3149965 198.16,41.005 Z M196.93,41.125 C196.93,40.2849958 196.852501,39.6050026 196.6975,39.085 C196.542499,38.5649974 196.335001,38.1600014 196.075,37.87 C195.814999,37.5799986 195.517502,37.3850005 195.1825,37.285 C194.847498,37.1849995 194.500002,37.135 194.14,37.135 L192.19,37.135 L192.19,44.92 L194.035,44.92 C194.375002,44.92 194.714998,44.8775004 195.055,44.7925 C195.395002,44.7074996 195.704999,44.5325013 195.985,44.2675 C196.265001,44.0024987 196.492499,43.6200025 196.6675,43.12 C196.842501,42.6199975 196.93,41.9550041 196.93,41.125 Z M201.46,36.745 C201.46,36.9350009 201.4225,37.0949994 201.3475,37.225 C201.2725,37.3550006 201.095001,37.42 200.815,37.42 C200.524999,37.42 200.345,37.3525007 200.275,37.2175 C200.205,37.0824993 200.17,36.9250009 200.17,36.745 C200.17,36.5549991 200.2125,36.4000006 200.2975,36.28 C200.3825,36.1599994 200.554999,36.1 200.815,36.1 C201.085001,36.1 201.26,36.1574994 201.34,36.2725 C201.42,36.3875006 201.46,36.544999 201.46,36.745 Z M201.37,45.745 C201.37,45.9150009 201.290001,46 201.13,46 L200.515,46 C200.334999,46 200.245,45.9150009 200.245,45.745 L200.245,38.95 C200.245,38.8399995 200.2675,38.7700001 200.3125,38.74 C200.3575,38.7099999 200.425,38.695 200.515,38.695 L201.13,38.695 C201.290001,38.695 201.37,38.7799992 201.37,38.95 L201.37,45.745 Z M206.29,38.545 C206.520001,38.545 206.759999,38.5549999 207.01,38.575 C207.260001,38.5950001 207.504999,38.6199999 207.745,38.65 C207.985001,38.6800002 208.214999,38.7174998 208.435,38.7625 C208.655001,38.8075002 208.854999,38.8549997 209.035,38.905 C209.205001,38.9550003 209.31,39.0399994 209.35,39.16 C209.39,39.2800006 209.41,39.3949994 209.41,39.505 L209.41,46.03 C209.41,46.430002 209.38,46.7974983 209.32,47.1325 C209.26,47.4675017 209.130001,47.7574988 208.93,48.0025 C208.729999,48.2475012 208.440002,48.4374993 208.06,48.5725 C207.679998,48.7075007 207.170003,48.775 206.53,48.775 C206.339999,48.775 206.135001,48.77 205.915,48.76 C205.694999,48.75 205.477501,48.7325001 205.2625,48.7075 C205.047499,48.6824999 204.837501,48.6475002 204.6325,48.6025 C204.427499,48.5574998 204.245001,48.5000003 204.085,48.43 C203.984999,48.3899998 203.9275,48.3425003 203.9125,48.2875 C203.8975,48.2324997 203.9,48.1750003 203.92,48.115 L203.98,47.785 C204,47.6949995 204.04,47.6400001 204.1,47.62 C204.16,47.5999999 204.244999,47.5999999 204.355,47.62 C204.675002,47.6700002 205.029998,47.7049999 205.42,47.725 C205.810002,47.7450001 206.159998,47.755 206.47,47.755 C206.820002,47.755 207.107499,47.7275003 207.3325,47.6725 C207.557501,47.6174997 207.737499,47.5300006 207.8725,47.41 C208.007501,47.2899994 208.1025,47.1375009 208.1575,46.9525 C208.2125,46.7674991 208.24,46.5450013 208.24,46.285 L208.24,45.685 C207.779998,45.8550008 207.377502,45.9724997 207.0325,46.0375 C206.687498,46.1025003 206.380001,46.135 206.11,46.135 C205.529997,46.135 205.052502,46.0475009 204.6775,45.8725 C204.302498,45.6974991 204.005001,45.4450016 203.785,45.115 C203.564999,44.7849984 203.4125,44.3900023 203.3275,43.93 C203.2425,43.4699977 203.2,42.9550029 203.2,42.385 C203.2,41.774997 203.25,41.2325024 203.35,40.7575 C203.45,40.2824976 203.619999,39.8800016 203.86,39.55 C204.100001,39.2199983 204.417498,38.9700008 204.8125,38.8 C205.207502,38.6299992 205.699997,38.545 206.29,38.545 Z M204.4,42.25 C204.4,42.7800026 204.43,43.2249982 204.49,43.585 C204.55,43.9450018 204.647499,44.2399988 204.7825,44.47 C204.917501,44.7000011 205.089999,44.8649995 205.3,44.965 C205.510001,45.0650005 205.769998,45.115 206.08,45.115 C206.360001,45.115 206.694998,45.0850003 207.085,45.025 C207.475002,44.9649997 207.859998,44.8800005 208.24,44.77 L208.24,39.775 C207.949999,39.7349998 207.637502,39.6975002 207.3025,39.6625 C206.967498,39.6274998 206.640002,39.61 206.32,39.61 C206.049999,39.61 205.797501,39.6399997 205.5625,39.7 C205.327499,39.7600003 205.122501,39.8824991 204.9475,40.0675 C204.772499,40.2525009 204.6375,40.5174983 204.5425,40.8625 C204.4475,41.2075017 204.4,41.6699971 204.4,42.25 Z M212.47,36.745 C212.47,36.9350009 212.4325,37.0949994 212.3575,37.225 C212.2825,37.3550006 212.105001,37.42 211.825,37.42 C211.534999,37.42 211.355,37.3525007 211.285,37.2175 C211.215,37.0824993 211.18,36.9250009 211.18,36.745 C211.18,36.5549991 211.2225,36.4000006 211.3075,36.28 C211.3925,36.1599994 211.564999,36.1 211.825,36.1 C212.095001,36.1 212.27,36.1574994 212.35,36.2725 C212.43,36.3875006 212.47,36.544999 212.47,36.745 Z M212.38,45.745 C212.38,45.9150009 212.300001,46 212.14,46 L211.525,46 C211.344999,46 211.255,45.9150009 211.255,45.745 L211.255,38.95 C211.255,38.8399995 211.2775,38.7700001 211.3225,38.74 C211.3675,38.7099999 211.435,38.695 211.525,38.695 L212.14,38.695 C212.300001,38.695 212.38,38.7799992 212.38,38.95 L212.38,45.745 Z M218.38,45.535 C218.39,45.6650006 218.345,45.7599997 218.245,45.82 C218.155,45.8700002 218.037501,45.9124998 217.8925,45.9475 C217.747499,45.9825002 217.592501,46.0124999 217.4275,46.0375 C217.262499,46.0625001 217.102501,46.0824999 216.9475,46.0975 C216.792499,46.1125001 216.660001,46.12 216.55,46.12 C216.229998,46.12 215.965001,46.0825004 215.755,46.0075 C215.544999,45.9324996 215.380001,45.8250007 215.26,45.685 C215.139999,45.5449993 215.055,45.377501 215.005,45.1825 C214.955,44.987499 214.93,44.7700012 214.93,44.53 L214.93,39.64 L214.105,39.64 C213.934999,39.64 213.85,39.5550008 213.85,39.385 L213.85,38.965 C213.85,38.7849991 213.934999,38.695 214.105,38.695 L214.945,38.695 L214.945,37.075 C214.945,36.9849995 214.9675,36.9200002 215.0125,36.88 C215.0575,36.8399998 215.12,36.8100001 215.2,36.79 L215.8,36.625 C215.970001,36.5749997 216.055,36.649999 216.055,36.85 L216.055,38.695 L217.72,38.695 C217.830001,38.695 217.9,38.7174998 217.93,38.7625 C217.96,38.8075002 217.975,38.8699996 217.975,38.95 L217.975,39.385 C217.975,39.4750004 217.96,39.5399998 217.93,39.58 C217.9,39.6200002 217.830001,39.64 217.72,39.64 L216.055,39.64 L216.055,44.185 C216.055,44.3650009 216.0675,44.5099994 216.0925,44.62 C216.1175,44.7300006 216.17,44.8199996 216.25,44.89 C216.33,44.9600003 216.437499,45.0074999 216.5725,45.0325 C216.707501,45.0575001 216.889999,45.07 217.12,45.07 C217.2,45.07 217.337499,45.0625001 217.5325,45.0475 C217.727501,45.0324999 217.879999,45.02 217.99,45.01 C218.110001,45 218.19,45.0074999 218.23,45.0325 C218.27,45.0575001 218.3,45.1099996 218.32,45.19 L218.38,45.535 Z M223.84,45.19 C223.469998,45.4100011 223.057502,45.619999 222.6025,45.82 C222.147498,46.020001 221.620003,46.12 221.02,46.12 C220.289996,46.12 219.770002,45.9450018 219.46,45.595 C219.149998,45.2449982 218.995,44.7300034 218.995,44.05 C218.995,43.1999957 219.209998,42.5675021 219.64,42.1525 C220.070002,41.7374979 220.784995,41.53 221.785,41.53 L223.855,41.53 L223.855,41.02 C223.855,40.4699973 223.727501,40.090001 223.4725,39.88 C223.217499,39.669999 222.760003,39.565 222.1,39.565 C221.959999,39.565 221.802501,39.5675 221.6275,39.5725 C221.452499,39.5775 221.270001,39.5874999 221.08,39.6025 L220.51,39.6475 C220.319999,39.6625001 220.145001,39.6799999 219.985,39.7 C219.814999,39.7300002 219.715,39.6850006 219.685,39.565 L219.595,39.175 C219.575,39.1049997 219.5825,39.0450002 219.6175,38.995 C219.6525,38.9449998 219.724999,38.8950003 219.835,38.845 C219.985001,38.7949997 220.164999,38.7500002 220.375,38.71 C220.585001,38.6699998 220.804999,38.6375001 221.035,38.6125 C221.265001,38.5874999 221.492499,38.5700001 221.7175,38.56 C221.942501,38.55 222.144999,38.545 222.325,38.545 C222.925003,38.545 223.402498,38.6099993 223.7575,38.74 C224.112502,38.8700007 224.382499,39.0499989 224.5675,39.28 C224.752501,39.5100012 224.87,39.7899983 224.92,40.12 C224.97,40.4500017 224.995,40.814998 224.995,41.215 L224.995,44.53 C224.995,44.6800008 225.0025,44.7949996 225.0175,44.875 C225.0325,44.9550004 225.0575,45.0149998 225.0925,45.055 C225.1275,45.0950002 225.18,45.1224999 225.25,45.1375 C225.32,45.1525001 225.414999,45.165 225.535,45.175 C225.705001,45.1850001 225.79,45.2499994 225.79,45.37 L225.79,45.745 C225.79,45.8150003 225.77,45.8724998 225.73,45.9175 C225.69,45.9625002 225.610001,45.9949999 225.49,46.015 C225.309999,46.0450002 225.135001,46.06 224.965,46.06 C224.614998,46.06 224.357501,45.9950007 224.1925,45.865 C224.027499,45.7349993 223.92,45.5100016 223.87,45.19 L223.84,45.19 Z M223.855,42.475 L221.65,42.475 C221.189998,42.475 220.825001,42.5799989 220.555,42.79 C220.284999,43.0000011 220.15,43.404997 220.15,44.005 C220.15,44.4250021 220.232499,44.7099993 220.3975,44.86 C220.562501,45.0100008 220.864998,45.085 221.305,45.085 C221.495001,45.085 221.702499,45.0600003 221.9275,45.01 C222.152501,44.9599997 222.379999,44.8925004 222.61,44.8075 C222.840001,44.7224996 223.062499,44.6300005 223.2775,44.53 C223.492501,44.4299995 223.684999,44.3300005 223.855,44.23 L223.855,42.475 Z M229.3,45.655 C229.31,45.7750006 229.260001,45.8599998 229.15,45.91 C229.029999,45.9600002 228.897501,45.9999998 228.7525,46.03 C228.607499,46.0600001 228.470001,46.075 228.34,46.075 C228.089999,46.075 227.885001,46.0450003 227.725,45.985 C227.564999,45.9249997 227.44,45.8425005 227.35,45.7375 C227.26,45.6324995 227.1975,45.5025008 227.1625,45.3475 C227.1275,45.1924992 227.11,45.0250009 227.11,44.845 L227.11,35.695 C227.11,35.5249991 227.194999,35.44 227.365,35.44 L227.965,35.44 C228.055,35.44 228.1225,35.4549998 228.1675,35.485 C228.2125,35.5150002 228.235,35.5849994 228.235,35.695 L228.235,44.47 C228.235,44.7300013 228.289999,44.8874997 228.4,44.9425 C228.510001,44.9975003 228.704999,45.025 228.985,45.025 C229.145001,45.025 229.23,45.0749995 229.24,45.175 L229.3,45.655 Z" id="CEF-Digital" fill="#004494"></path>
            <path d="M163.917,62.252 C163.917,60.9919937 164.002499,59.7950057 164.1735,58.661 C164.344501,57.5269943 164.672998,56.5370042 165.159,55.691 C165.645002,54.8449958 166.315496,54.1700025 167.1705,53.666 C168.025504,53.1619975 169.136993,52.91 170.505,52.91 C170.793001,52.91 171.143998,52.9189999 171.558,52.937 C171.972002,52.9550001 172.390498,52.9819998 172.8135,53.018 C173.236502,53.0540002 173.650498,53.1079996 174.0555,53.18 C174.460502,53.2520004 174.806999,53.3419995 175.095,53.45 C175.221001,53.4860002 175.266,53.5669994 175.23,53.693 L175.203,53.99 C175.185,54.0440003 175.1625,54.0844999 175.1355,54.1115 C175.1085,54.1385001 175.05,54.1430001 174.96,54.125 C174.689999,54.1069999 174.388502,54.0845001 174.0555,54.0575 C173.722498,54.0304999 173.367002,54.0035001 172.989,53.9765 C172.610998,53.9494999 172.228502,53.9270001 171.8415,53.909 C171.454498,53.8909999 171.081002,53.882 170.721,53.882 C169.424994,53.882 168.394504,54.1339975 167.6295,54.638 C166.864496,55.1420025 166.284002,55.789996 165.888,56.582 C165.491998,57.374004 165.235501,58.269495 165.1185,59.2685 C165.001499,60.267505 164.943,61.261995 164.943,62.252 C164.943,63.2960052 165.014999,64.2994952 165.159,65.2625 C165.303001,66.2255048 165.586498,67.0759963 166.0095,67.814 C166.432502,68.5520037 167.017496,69.1414978 167.7645,69.5825 C168.511504,70.0235022 169.478994,70.244 170.667,70.244 C170.973002,70.244 171.319498,70.2395 171.7065,70.2305 C172.093502,70.2215 172.480498,70.2035001 172.8675,70.1765 C173.254502,70.1494999 173.632498,70.1270001 174.0015,70.109 C174.370502,70.0909999 174.689999,70.0640002 174.96,70.028 C175.104001,70.028 175.185,70.0819995 175.203,70.19 L175.257,70.487 C175.257,70.5950005 175.203001,70.6759997 175.095,70.73 C174.806999,70.8380005 174.442502,70.9234997 174.0015,70.9865 C173.560498,71.0495003 173.115002,71.0989998 172.665,71.135 C172.214998,71.1710002 171.792002,71.1979999 171.396,71.216 C170.999998,71.2340001 170.703001,71.243 170.505,71.243 C169.154993,71.243 168.052504,71.0090023 167.1975,70.541 C166.342496,70.0729977 165.672002,69.4295041 165.186,68.6105 C164.699998,67.7914959 164.367001,66.8375054 164.187,65.7485 C164.006999,64.6594946 163.917,63.4940062 163.917,62.252 Z M182.142,71.216 C180.935994,71.216 179.991003,71.0045021 179.307,70.5815 C178.622997,70.1584979 178.110002,69.6140033 177.768,68.948 C177.425998,68.2819967 177.2145,67.5305042 177.1335,66.6935 C177.0525,65.8564958 177.012,65.0150042 177.012,64.169 C177.012,63.5029967 177.065999,62.7830039 177.174,62.009 C177.282001,61.2349961 177.511498,60.5195033 177.8625,59.8625 C178.213502,59.2054967 178.726497,58.6610022 179.4015,58.229 C180.076503,57.7969978 180.989994,57.581 182.142,57.581 C183.312006,57.581 184.247996,57.7699981 184.95,58.148 C185.652004,58.5260019 186.187498,59.0254969 186.5565,59.6465 C186.925502,60.2675031 187.168499,60.9694961 187.2855,61.7525 C187.402501,62.5355039 187.461,63.3409959 187.461,64.169 C187.461,64.979004 187.416,65.8024958 187.326,66.6395 C187.236,67.4765042 187.015502,68.2324966 186.6645,68.9075 C186.313498,69.5825034 185.782504,70.1359978 185.0715,70.568 C184.360496,71.0000022 183.384006,71.216 182.142,71.216 Z M182.142,58.472 C181.259996,58.472 180.549003,58.6249985 180.009,58.931 C179.468997,59.2370015 179.050501,59.6554973 178.7535,60.1865 C178.456499,60.7175027 178.2585,61.3429964 178.1595,62.063 C178.0605,62.7830036 178.011,63.5569959 178.011,64.385 C178.011,65.2310042 178.0605,66.0184964 178.1595,66.7475 C178.2585,67.4765036 178.456499,68.1109973 178.7535,68.651 C179.050501,69.1910027 179.468997,69.6139985 180.009,69.92 C180.549003,70.2260015 181.259996,70.379 182.142,70.379 C183.042004,70.379 183.775497,70.2305015 184.3425,69.9335 C184.909503,69.6364985 185.350498,69.2225027 185.6655,68.6915 C185.980502,68.1604973 186.191999,67.5305036 186.3,66.8015 C186.408001,66.0724964 186.462,65.2670044 186.462,64.385 C186.462,63.5029956 186.408001,62.6975036 186.3,61.9685 C186.191999,61.2394964 185.985002,60.6185026 185.679,60.1055 C185.372998,59.5924974 184.936503,59.1920014 184.3695,58.904 C183.802497,58.6159986 183.060005,58.472 182.142,58.472 Z M196.317,57.608 C197.217005,57.608 197.914498,57.7384987 198.4095,57.9995 C198.904502,58.2605013 199.264499,58.6159977 199.4895,59.066 C199.714501,59.5160022 199.8495,60.037997 199.8945,60.632 C199.9395,61.226003 199.962,61.8469968 199.962,62.495 L199.962,70.838 C199.962,70.9460005 199.908001,71 199.8,71 L199.125,71 C199.035,71 198.99,70.9460005 198.99,70.838 L198.99,62.387 C198.99,61.8289972 198.972,61.3070024 198.936,60.821 C198.9,60.3349976 198.787501,59.9165018 198.5985,59.5655 C198.409499,59.2144982 198.121502,58.935501 197.7345,58.7285 C197.347498,58.521499 196.812003,58.418 196.128,58.418 C195.731998,58.418 195.282003,58.4899993 194.778,58.634 C194.273997,58.7780007 193.779002,58.9444991 193.293,59.1335 C192.806998,59.3225009 192.352502,59.520499 191.9295,59.7275 C191.506498,59.934501 191.178001,60.1009994 190.944,60.227 L190.944,70.838 C190.944,70.9460005 190.881001,71 190.755,71 L190.161,71 C190.071,71 190.026,70.9460005 190.026,70.838 L190.026,58.013 C190.026,57.9049995 190.071,57.851 190.161,57.851 L190.755,57.851 C190.881001,57.851 190.944,57.9049995 190.944,58.013 L190.944,59.471 C191.214001,59.3089992 191.551498,59.1200011 191.9565,58.904 C192.361502,58.6879989 192.797998,58.4855009 193.266,58.2965 C193.734002,58.1074991 194.228997,57.9455007 194.751,57.8105 C195.273003,57.6754993 195.794997,57.608 196.317,57.608 Z M208.845,57.608 C209.745004,57.608 210.442498,57.7384987 210.9375,57.9995 C211.432502,58.2605013 211.792499,58.6159977 212.0175,59.066 C212.242501,59.5160022 212.3775,60.037997 212.4225,60.632 C212.4675,61.226003 212.49,61.8469968 212.49,62.495 L212.49,70.838 C212.49,70.9460005 212.436001,71 212.328,71 L211.653,71 C211.563,71 211.518,70.9460005 211.518,70.838 L211.518,62.387 C211.518,61.8289972 211.5,61.3070024 211.464,60.821 C211.428,60.3349976 211.315501,59.9165018 211.1265,59.5655 C210.937499,59.2144982 210.649502,58.935501 210.2625,58.7285 C209.875498,58.521499 209.340003,58.418 208.656,58.418 C208.259998,58.418 207.810003,58.4899993 207.306,58.634 C206.801997,58.7780007 206.307002,58.9444991 205.821,59.1335 C205.334998,59.3225009 204.880502,59.520499 204.4575,59.7275 C204.034498,59.934501 203.706001,60.1009994 203.472,60.227 L203.472,70.838 C203.472,70.9460005 203.409001,71 203.283,71 L202.689,71 C202.599,71 202.554,70.9460005 202.554,70.838 L202.554,58.013 C202.554,57.9049995 202.599,57.851 202.689,57.851 L203.283,57.851 C203.409001,57.851 203.472,57.9049995 203.472,58.013 L203.472,59.471 C203.742001,59.3089992 204.079498,59.1200011 204.4845,58.904 C204.889502,58.6879989 205.325998,58.4855009 205.794,58.2965 C206.262002,58.1074991 206.756997,57.9455007 207.279,57.8105 C207.801003,57.6754993 208.322997,57.608 208.845,57.608 Z M214.947,64.331 C214.947,63.520996 215.005499,62.715504 215.1225,61.9145 C215.239501,61.113496 215.482498,60.3890032 215.8515,59.741 C216.220502,59.0929968 216.737997,58.571002 217.404,58.175 C218.070003,57.778998 218.951995,57.581 220.05,57.581 C221.130005,57.581 222.007497,57.7429984 222.6825,58.067 C223.357503,58.3910016 223.879498,58.8274973 224.2485,59.3765 C224.617502,59.9255027 224.869499,60.5554964 225.0045,61.2665 C225.139501,61.9775036 225.207,62.7109962 225.207,63.467 C225.207,63.863002 225.148501,64.1509991 225.0315,64.331 C224.914499,64.5110009 224.685002,64.601 224.343,64.601 L215.973,64.601 C215.973,65.3570038 216.018,66.0814965 216.108,66.7745 C216.198,67.4675035 216.382499,68.0794973 216.6615,68.6105 C216.940501,69.1415027 217.349997,69.5599985 217.89,69.866 C218.430003,70.1720015 219.149995,70.325 220.05,70.325 C220.770004,70.325 221.458497,70.2935003 222.1155,70.2305 C222.772503,70.1674997 223.460996,70.1000004 224.181,70.028 C224.325001,70.028 224.406,70.0729996 224.424,70.163 L224.451,70.406 C224.487,70.5320006 224.451001,70.6039999 224.343,70.622 C224.072999,70.7300005 223.749002,70.8199996 223.371,70.892 C222.992998,70.9640004 222.601502,71.0269997 222.1965,71.081 C221.791498,71.1350003 221.391002,71.1709999 220.995,71.189 C220.598998,71.2070001 220.257001,71.216 219.969,71.216 C218.834994,71.216 217.935003,71.0270019 217.269,70.649 C216.602997,70.2709981 216.099002,69.7670031 215.757,69.137 C215.414998,68.5069968 215.1945,67.7735042 215.0955,66.9365 C214.9965,66.0994958 214.947,65.2310045 214.947,64.331 Z M220.05,58.472 C219.221996,58.472 218.547003,58.6069986 218.025,58.877 C217.502997,59.1470013 217.093501,59.5204976 216.7965,59.9975 C216.499499,60.4745024 216.288001,61.0369968 216.162,61.685 C216.035999,62.3330032 215.964,63.0439961 215.946,63.818 L224.208,63.818 C224.19,63.1339966 224.1405,62.4725032 224.0595,61.8335 C223.9785,61.1944968 223.798501,60.6230025 223.5195,60.119 C223.240499,59.6149975 222.826503,59.2145015 222.2775,58.9175 C221.728497,58.6204985 220.986005,58.472 220.05,58.472 Z M236.331,70.487 C236.349,70.5950005 236.304001,70.6669998 236.196,70.703 C235.925999,70.7930004 235.611002,70.8739996 235.251,70.946 C234.890998,71.0180004 234.517502,71.0764998 234.1305,71.1215 C233.743498,71.1665002 233.374502,71.1979999 233.0235,71.216 C232.672498,71.2340001 232.380001,71.243 232.146,71.243 C231.083995,71.243 230.242503,71.0765017 229.6215,70.7435 C229.000497,70.4104983 228.519002,69.9380031 228.177,69.326 C227.834998,68.7139969 227.6145,67.9850042 227.5155,67.139 C227.4165,66.2929958 227.367,65.3570051 227.367,64.331 C227.367,63.4129954 227.420999,62.5445041 227.529,61.7255 C227.637001,60.9064959 227.861998,60.1910031 228.204,59.579 C228.546002,58.9669969 229.040997,58.4810018 229.689,58.121 C230.337003,57.7609982 231.200995,57.581 232.281,57.581 C232.515001,57.581 232.802998,57.5899999 233.145,57.608 C233.487002,57.6260001 233.837998,57.6574998 234.198,57.7025 C234.558002,57.7475002 234.913498,57.8059996 235.2645,57.878 C235.615502,57.9500004 235.925999,58.0309995 236.196,58.121 C236.304001,58.1570002 236.349,58.2289995 236.331,58.337 L236.277,58.607 C236.241,58.7150005 236.160001,58.7600001 236.034,58.742 C235.313996,58.6519996 234.661503,58.5800003 234.0765,58.526 C233.491497,58.4719997 232.920003,58.445 232.362,58.445 C231.605996,58.445 230.971503,58.548499 230.4585,58.7555 C229.945497,58.962501 229.531502,59.2999977 229.2165,59.768 C228.901498,60.2360023 228.676501,60.8434963 228.5415,61.5905 C228.406499,62.3375037 228.339,63.2419947 228.339,64.304 C228.339,65.4200056 228.401999,66.3604962 228.528,67.1255 C228.654001,67.8905038 228.869998,68.5114976 229.176,68.9885 C229.482002,69.4655024 229.891497,69.8119989 230.4045,70.028 C230.917503,70.2440011 231.569996,70.352 232.362,70.352 C232.920003,70.352 233.554496,70.3250003 234.2655,70.271 C234.976504,70.2169997 235.574998,70.1540004 236.061,70.082 C236.151,70.0639999 236.205,70.0684999 236.223,70.0955 C236.241,70.1225001 236.259,70.1629997 236.277,70.217 L236.331,70.487 Z M244.269,70.649 C244.287,70.7390005 244.2825,70.7929999 244.2555,70.811 L244.134,70.892 C243.953999,70.9460003 243.643502,71.0134996 243.2025,71.0945 C242.761498,71.1755004 242.253003,71.216 241.677,71.216 C240.830996,71.216 240.259501,71.0225019 239.9625,70.6355 C239.665499,70.2484981 239.517,69.6140044 239.517,68.732 L239.517,58.58 L237.816,58.58 C237.707999,58.58 237.654,58.5350005 237.654,58.445 L237.654,57.986 C237.654,57.8779995 237.716999,57.824 237.843,57.824 L239.517,57.824 L239.517,54.746 C239.517,54.6379995 239.562,54.5660002 239.652,54.53 L240.138,54.341 C240.300001,54.2689996 240.39,54.2509998 240.408,54.287 C240.426,54.3230002 240.435,54.4039994 240.435,54.53 L240.435,57.824 L243.378,57.824 C243.468,57.824 243.513,57.8689995 243.513,57.959 L243.513,58.445 C243.513,58.5350005 243.468,58.58 243.378,58.58 L240.435,58.58 L240.435,68.435 C240.435,68.7410015 240.4485,69.0109988 240.4755,69.245 C240.5025,69.4790012 240.569999,69.6814991 240.678,69.8525 C240.786001,70.0235009 240.952499,70.1539995 241.1775,70.244 C241.402501,70.3340005 241.712998,70.379 242.109,70.379 C242.361001,70.379 242.684998,70.3700001 243.081,70.352 C243.477002,70.3339999 243.782999,70.3070002 243.999,70.271 C244.089,70.2529999 244.143,70.2574999 244.161,70.2845 C244.179,70.3115001 244.197,70.3519997 244.215,70.406 L244.269,70.649 Z M247.59,70.838 C247.59,70.9460005 247.545,71 247.455,71 L246.834,71 C246.725999,71 246.672,70.9460005 246.672,70.838 L246.672,58.013 C246.672,57.9049995 246.725999,57.851 246.834,57.851 L247.482,57.851 C247.554,57.851 247.59,57.9049995 247.59,58.013 L247.59,70.838 Z M247.806,54.314 C247.806,54.512001 247.7655,54.6829993 247.6845,54.827 C247.6035,54.9710007 247.419001,55.043 247.131,55.043 C246.842999,55.043 246.663,54.9710007 246.591,54.827 C246.519,54.6829993 246.483,54.512001 246.483,54.314 C246.483,54.115999 246.5235,53.9540006 246.6045,53.828 C246.6855,53.7019994 246.860999,53.639 247.131,53.639 C247.419001,53.639 247.6035,53.7019994 247.6845,53.828 C247.7655,53.9540006 247.806,54.115999 247.806,54.314 Z M257.445,57.608 C258.345005,57.608 259.042498,57.7384987 259.5375,57.9995 C260.032502,58.2605013 260.392499,58.6159977 260.6175,59.066 C260.842501,59.5160022 260.9775,60.037997 261.0225,60.632 C261.0675,61.226003 261.09,61.8469968 261.09,62.495 L261.09,70.838 C261.09,70.9460005 261.036001,71 260.928,71 L260.253,71 C260.163,71 260.118,70.9460005 260.118,70.838 L260.118,62.387 C260.118,61.8289972 260.1,61.3070024 260.064,60.821 C260.028,60.3349976 259.915501,59.9165018 259.7265,59.5655 C259.537499,59.2144982 259.249502,58.935501 258.8625,58.7285 C258.475498,58.521499 257.940003,58.418 257.256,58.418 C256.859998,58.418 256.410003,58.4899993 255.906,58.634 C255.401997,58.7780007 254.907002,58.9444991 254.421,59.1335 C253.934998,59.3225009 253.480502,59.520499 253.0575,59.7275 C252.634498,59.934501 252.306001,60.1009994 252.072,60.227 L252.072,70.838 C252.072,70.9460005 252.009001,71 251.883,71 L251.289,71 C251.199,71 251.154,70.9460005 251.154,70.838 L251.154,58.013 C251.154,57.9049995 251.199,57.851 251.289,57.851 L251.883,57.851 C252.009001,57.851 252.072,57.9049995 252.072,58.013 L252.072,59.471 C252.342001,59.3089992 252.679498,59.1200011 253.0845,58.904 C253.489502,58.6879989 253.925998,58.4855009 254.394,58.2965 C254.862002,58.1074991 255.356997,57.9455007 255.879,57.8105 C256.401003,57.6754993 256.922997,57.608 257.445,57.608 Z M273.942,71.432 C273.942,72.2960043 273.870001,73.0204971 273.726,73.6055 C273.581999,74.1905029 273.330002,74.6584982 272.97,75.0095 C272.609998,75.3605018 272.133003,75.6124992 271.539,75.7655 C270.944997,75.9185008 270.198005,75.995 269.298,75.995 C268.973998,75.995 268.632002,75.9860001 268.272,75.968 C267.911998,75.9499999 267.543002,75.9230002 267.165,75.887 C266.786998,75.8509998 266.418002,75.8015003 266.058,75.7385 C265.697998,75.6754997 265.374001,75.5900005 265.086,75.482 C264.977999,75.4279997 264.933,75.3470005 264.951,75.239 L264.978,74.969 C264.996,74.8789995 265.076999,74.834 265.221,74.834 C265.869003,74.9060004 266.512497,74.9734997 267.1515,75.0365 C267.790503,75.0995003 268.433997,75.131 269.082,75.131 C269.820004,75.131 270.440997,75.0725006 270.945,74.9555 C271.449003,74.8384994 271.853998,74.6450014 272.16,74.375 C272.466002,74.1049986 272.686499,73.7450022 272.8215,73.295 C272.956501,72.8449977 273.024,72.2870033 273.024,71.621 L273.024,70.433 L272.943,70.379 C271.988995,70.7570019 271.143004,70.9909995 270.405,71.081 C269.666996,71.1710005 269.037003,71.216 268.515,71.216 C267.542995,71.216 266.737503,71.0675015 266.0985,70.7705 C265.459497,70.4734985 264.946502,70.0370029 264.5595,69.461 C264.172498,68.8849971 263.902501,68.1740042 263.7495,67.328 C263.596499,66.4819958 263.52,65.5100055 263.52,64.412 C263.52,62.0539882 263.906996,60.3215055 264.681,59.2145 C265.455004,58.1074945 266.759991,57.554 268.596,57.554 C269.766006,57.554 270.724496,57.6034995 271.4715,57.7025 C272.218504,57.8015005 272.879997,57.9229993 273.456,58.067 C273.690001,58.1210003 273.8295,58.2019995 273.8745,58.31 C273.9195,58.4180005 273.942,58.570999 273.942,58.769 L273.942,71.432 Z M272.997,58.85 C272.420997,58.7419995 271.764004,58.6475004 271.026,58.5665 C270.287996,58.4854996 269.514004,58.445 268.704,58.445 C268.145997,58.445 267.615003,58.5169993 267.111,58.661 C266.606997,58.8050007 266.166002,59.079498 265.788,59.4845 C265.409998,59.889502 265.108501,60.4654963 264.8835,61.2125 C264.658499,61.9595037 264.546,62.935994 264.546,64.142 C264.546,66.2840107 264.829497,67.854495 265.3965,68.8535 C265.963503,69.852505 266.948993,70.352 268.353,70.352 C269.037003,70.352 269.752496,70.2890006 270.4995,70.163 C271.246504,70.0369994 272.078995,69.8390013 272.997,69.569 L272.997,58.85 Z M283.743,71 C283.653,71 283.608,70.9550004 283.608,70.865 L283.608,53.288 C283.608,53.1619994 283.653,53.099 283.743,53.099 L293.058,53.099 C293.148,53.099 293.193,53.1529995 293.193,53.261 L293.193,53.855 C293.193,53.9630005 293.148,54.017 293.058,54.017 L284.607,54.017 L284.607,61.253 L292.221,61.253 C292.311,61.253 292.356,61.2979995 292.356,61.388 L292.356,61.928 C292.356,62.0540006 292.311,62.117 292.221,62.117 L284.607,62.117 L284.607,70.109 L293.22,70.109 C293.328001,70.109 293.382,70.1539995 293.382,70.244 L293.382,70.865 C293.382,70.9550004 293.328001,71 293.22,71 L283.743,71 Z M299.619,71.216 C298.682995,71.216 297.967502,71.0855013 297.4725,70.8245 C296.977498,70.5634987 296.622001,70.2080022 296.406,69.758 C296.189999,69.3079977 296.0685,68.786003 296.0415,68.192 C296.0145,67.597997 296.001,66.9770032 296.001,66.329 L296.001,57.986 C296.001,57.8779995 296.054999,57.824 296.163,57.824 L296.811,57.824 C296.901,57.824 296.946,57.8779995 296.946,57.986 L296.946,66.437 C296.946,66.9950028 296.964,67.5169976 297,68.003 C297.036,68.4890024 297.148499,68.9074982 297.3375,69.2585 C297.526501,69.6095018 297.814498,69.888499 298.2015,70.0955 C298.588502,70.302501 299.123997,70.406 299.808,70.406 C300.204002,70.406 300.653997,70.3340007 301.158,70.19 C301.662003,70.0459993 302.156998,69.8795009 302.643,69.6905 C303.129002,69.5014991 303.583498,69.303501 304.0065,69.0965 C304.429502,68.889499 304.766999,68.7230006 305.019,68.597 L305.019,57.986 C305.019,57.8779995 305.081999,57.824 305.208,57.824 L305.802,57.824 C305.910001,57.824 305.964,57.8779995 305.964,57.986 L305.964,70.865 C305.964,70.9550004 305.910001,71 305.802,71 L305.181,71 C305.054999,71 304.992,70.9550004 304.992,70.865 L304.992,69.353 C304.721999,69.5150008 304.389002,69.7039989 303.993,69.92 C303.596998,70.1360011 303.160502,70.3384991 302.6835,70.5275 C302.206498,70.7165009 301.707003,70.8784993 301.185,71.0135 C300.662997,71.1485007 300.141003,71.216 299.619,71.216 Z M314.604,58.364 C314.658,58.562001 314.604001,58.6789998 314.442,58.715 C314.153999,58.8050005 313.821002,58.9174993 313.443,59.0525 C313.064998,59.1875007 312.691502,59.3314992 312.3225,59.4845 C311.953498,59.6375008 311.611502,59.7859993 311.2965,59.93 C310.981498,60.0740007 310.752001,60.1819996 310.608,60.254 L310.608,70.838 C310.608,70.9460005 310.554001,71 310.446,71 L309.825,71 C309.735,71 309.69,70.9460005 309.69,70.838 L309.69,57.986 C309.69,57.8779995 309.735,57.824 309.825,57.824 L310.446,57.824 C310.554001,57.824 310.608,57.8779995 310.608,57.986 L310.608,59.579 C310.734001,59.4889996 310.931999,59.3540009 311.202,59.174 C311.472001,58.9939991 311.768998,58.805001 312.093,58.607 C312.417002,58.408999 312.763498,58.2200009 313.1325,58.04 C313.501502,57.8599991 313.865998,57.7250004 314.226,57.635 C314.316,57.5989998 314.3745,57.5989998 314.4015,57.635 C314.4285,57.6710002 314.451,57.7339995 314.469,57.824 L314.604,58.364 Z M320.976,71.216 C319.769994,71.216 318.825003,71.0045021 318.141,70.5815 C317.456997,70.1584979 316.944002,69.6140033 316.602,68.948 C316.259998,68.2819967 316.0485,67.5305042 315.9675,66.6935 C315.8865,65.8564958 315.846,65.0150042 315.846,64.169 C315.846,63.5029967 315.899999,62.7830039 316.008,62.009 C316.116001,61.2349961 316.345498,60.5195033 316.6965,59.8625 C317.047502,59.2054967 317.560497,58.6610022 318.2355,58.229 C318.910503,57.7969978 319.823994,57.581 320.976,57.581 C322.146006,57.581 323.081996,57.7699981 323.784,58.148 C324.486004,58.5260019 325.021498,59.0254969 325.3905,59.6465 C325.759502,60.2675031 326.002499,60.9694961 326.1195,61.7525 C326.236501,62.5355039 326.295,63.3409959 326.295,64.169 C326.295,64.979004 326.25,65.8024958 326.16,66.6395 C326.07,67.4765042 325.849502,68.2324966 325.4985,68.9075 C325.147498,69.5825034 324.616504,70.1359978 323.9055,70.568 C323.194496,71.0000022 322.218006,71.216 320.976,71.216 Z M320.976,58.472 C320.093996,58.472 319.383003,58.6249985 318.843,58.931 C318.302997,59.2370015 317.884501,59.6554973 317.5875,60.1865 C317.290499,60.7175027 317.0925,61.3429964 316.9935,62.063 C316.8945,62.7830036 316.845,63.5569959 316.845,64.385 C316.845,65.2310042 316.8945,66.0184964 316.9935,66.7475 C317.0925,67.4765036 317.290499,68.1109973 317.5875,68.651 C317.884501,69.1910027 318.302997,69.6139985 318.843,69.92 C319.383003,70.2260015 320.093996,70.379 320.976,70.379 C321.876005,70.379 322.609497,70.2305015 323.1765,69.9335 C323.743503,69.6364985 324.184498,69.2225027 324.4995,68.6915 C324.814502,68.1604973 325.025999,67.5305036 325.134,66.8015 C325.242001,66.0724964 325.296,65.2670044 325.296,64.385 C325.296,63.5029956 325.242001,62.6975036 325.134,61.9685 C325.025999,61.2394964 324.819002,60.6185026 324.513,60.1055 C324.206998,59.5924974 323.770503,59.1920014 323.2035,58.904 C322.636497,58.6159986 321.894005,58.472 320.976,58.472 Z M329.184,57.986 C329.184,57.8779995 329.211,57.824 329.265,57.824 L329.967,57.824 C330.057,57.824 330.102,57.8779995 330.102,57.986 L330.102,59.417 C330.408002,59.2369991 330.763498,59.0390011 331.1685,58.823 C331.573502,58.6069989 332.009998,58.4090009 332.478,58.229 C332.946002,58.0489991 333.436497,57.8960006 333.9495,57.77 C334.462503,57.6439994 334.979997,57.581 335.502,57.581 C336.240004,57.581 336.860997,57.7114987 337.365,57.9725 C337.869003,58.2335013 338.269499,58.6339973 338.5665,59.174 C338.863501,59.7140027 339.074999,60.4024958 339.201,61.2395 C339.327001,62.0765042 339.39,63.0619943 339.39,64.196 C339.39,65.3660058 339.318001,66.3919956 339.174,67.274 C339.029999,68.1560044 338.773502,68.8894971 338.4045,69.4745 C338.035498,70.0595029 337.540503,70.5004985 336.9195,70.7975 C336.298497,71.0945015 335.502005,71.243 334.53,71.243 C334.007997,71.243 333.364504,71.1935005 332.5995,71.0945 C331.834496,70.9954995 331.020004,70.7660018 330.156,70.406 L330.075,70.433 L330.075,75.59 C330.075,75.6980005 330.03,75.752 329.94,75.752 L329.265,75.752 C329.211,75.752 329.184,75.6980005 329.184,75.59 L329.184,57.986 Z M330.102,69.623 C331.002004,69.8930014 331.820996,70.0909994 332.559,70.217 C333.297004,70.3430006 334.007997,70.406 334.692,70.406 C336.096007,70.406 337.067997,69.911005 337.608,68.921 C338.148003,67.9309951 338.418,66.3290111 338.418,64.115 C338.418,63.0349946 338.355001,62.1305036 338.229,61.4015 C338.102999,60.6724964 337.909501,60.0875022 337.6485,59.6465 C337.387499,59.2054978 337.063502,58.8950009 336.6765,58.715 C336.289498,58.5349991 335.826003,58.445 335.286,58.445 C334.889998,58.445 334.440003,58.5169993 333.936,58.661 C333.431997,58.8050007 332.937002,58.9714991 332.451,59.1605 C331.964998,59.3495009 331.510502,59.5519989 331.0875,59.768 C330.664498,59.9840011 330.336001,60.1549994 330.102,60.281 L330.102,69.623 Z M341.658,64.331 C341.658,63.520996 341.716499,62.715504 341.8335,61.9145 C341.950501,61.113496 342.193498,60.3890032 342.5625,59.741 C342.931502,59.0929968 343.448997,58.571002 344.115,58.175 C344.781003,57.778998 345.662995,57.581 346.761,57.581 C347.841005,57.581 348.718497,57.7429984 349.3935,58.067 C350.068503,58.3910016 350.590498,58.8274973 350.9595,59.3765 C351.328502,59.9255027 351.580499,60.5554964 351.7155,61.2665 C351.850501,61.9775036 351.918,62.7109962 351.918,63.467 C351.918,63.863002 351.859501,64.1509991 351.7425,64.331 C351.625499,64.5110009 351.396002,64.601 351.054,64.601 L342.684,64.601 C342.684,65.3570038 342.729,66.0814965 342.819,66.7745 C342.909,67.4675035 343.093499,68.0794973 343.3725,68.6105 C343.651501,69.1415027 344.060997,69.5599985 344.601,69.866 C345.141003,70.1720015 345.860995,70.325 346.761,70.325 C347.481004,70.325 348.169497,70.2935003 348.8265,70.2305 C349.483503,70.1674997 350.171996,70.1000004 350.892,70.028 C351.036001,70.028 351.117,70.0729996 351.135,70.163 L351.162,70.406 C351.198,70.5320006 351.162001,70.6039999 351.054,70.622 C350.783999,70.7300005 350.460002,70.8199996 350.082,70.892 C349.703998,70.9640004 349.312502,71.0269997 348.9075,71.081 C348.502498,71.1350003 348.102002,71.1709999 347.706,71.189 C347.309998,71.2070001 346.968001,71.216 346.68,71.216 C345.545994,71.216 344.646003,71.0270019 343.98,70.649 C343.313997,70.2709981 342.810002,69.7670031 342.468,69.137 C342.125998,68.5069968 341.9055,67.7735042 341.8065,66.9365 C341.7075,66.0994958 341.658,65.2310045 341.658,64.331 Z M346.761,58.472 C345.932996,58.472 345.258003,58.6069986 344.736,58.877 C344.213997,59.1470013 343.804501,59.5204976 343.5075,59.9975 C343.210499,60.4745024 342.999001,61.0369968 342.873,61.685 C342.746999,62.3330032 342.675,63.0439961 342.657,63.818 L350.919,63.818 C350.901,63.1339966 350.8515,62.4725032 350.7705,61.8335 C350.6895,61.1944968 350.509501,60.6230025 350.2305,60.119 C349.951499,59.6149975 349.537503,59.2145015 348.9885,58.9175 C348.439497,58.6204985 347.697005,58.472 346.761,58.472 Z" id="Connecting-Europe" fill="#004494"></path>
        </g>
    </g>
</svg>